<?xml version="1.0" standalone="no"?>
<!DOCTYPE svg PUBLIC "-//W3C//DTD SVG 20010904//EN"
 "http://www.w3.org/TR/2001/REC-SVG-20010904/DTD/svg10.dtd">
<svg version="1.0" xmlns="http://www.w3.org/2000/svg"
 width="300.000000pt" height="300.000000pt" viewBox="0 0 300.000000 300.000000"
 preserveAspectRatio="xMidYMid meet">
<metadata>
Created by potrace 1.10, written by Peter Selinger 2001-2011
</metadata>
<g transform="translate(0.000000,300.000000) scale(0.100000,-0.100000)"
fill="#000000" stroke="none">
<path d="M1335 2914 c-168 -13 -332 -66 -465 -152 -74 -48 -101 -73 -92 -86 4
-6 9 -38 12 -71 5 -56 7 -60 30 -60 24 0 25 4 30 65 6 75 13 90 44 90 40 0 46
-17 46 -137 0 -62 -1 -114 -2 -115 -2 -1 -91 -4 -197 -7 l-195 -6 -19 -33
c-31 -53 -78 -200 -94 -292 -24 -138 -30 -805 -9 -988 20 -172 68 -334 123
-419 l16 -23 31 23 c41 31 61 38 75 24 18 -18 13 -72 -9 -92 -22 -20 -26 -55
-8 -73 7 -7 43 -12 93 -12 85 0 105 8 105 45 0 21 -17 45 -32 45 -5 0 -13 -11
-18 -25 -7 -19 -17 -25 -39 -25 -44 0 -53 19 -44 87 l8 58 60 3 c77 4 121 -22
148 -89 16 -38 17 -51 7 -88 -14 -53 -57 -99 -99 -107 -17 -4 -31 -12 -31 -19
0 -18 63 -59 170 -108 164 -77 305 -102 525 -94 339 12 547 95 750 302 141
143 205 272 245 495 21 111 23 159 24 430 l1 305 -529 3 c-417 2 -531 0 -538
-10 -4 -7 -8 -124 -8 -259 0 -193 3 -249 13 -258 9 -6 84 -12 203 -13 l189 -3
-1 -60 c-3 -184 -110 -312 -295 -351 -143 -30 -278 2 -360 87 -94 97 -113 209
-113 669 0 450 19 572 106 666 62 67 133 97 241 102 138 7 225 -18 300 -87 30
-27 89 -127 102 -171 4 -14 13 -28 19 -32 16 -11 638 -9 656 2 31 19 -55 285
-134 415 -17 28 -33 52 -36 55 -3 3 -24 28 -48 56 -123 150 -336 269 -572 320
-66 14 -294 25 -385 18z m-397 -591 c-3 -35 -7 -39 -72 -71 -79 -38 -78 -57 4
-57 59 0 73 -11 68 -56 l-3 -34 -190 0 -190 0 -3 94 c-3 87 -1 95 23 127 33
43 88 61 138 45 19 -7 41 -19 47 -27 18 -20 37 -17 105 16 68 34 79 28 73 -37z
m-193 -312 c30 -29 45 -28 108 3 73 35 89 30 85 -26 -3 -42 -5 -44 -65 -73
-35 -16 -63 -35 -63 -42 0 -7 3 -13 8 -14 46 -3 99 -10 110 -14 16 -6 15 -70
-2 -84 -9 -8 -69 -11 -192 -9 l-179 3 -3 93 c-2 79 0 98 17 126 40 64 126 82
176 37z m195 -341 c0 -34 -4 -42 -30 -55 -26 -13 -30 -21 -30 -56 0 -33 6 -47
30 -69 20 -19 30 -38 30 -58 0 -53 -15 -53 -165 0 -245 87 -225 76 -225 114 0
18 6 36 12 41 23 15 333 122 356 122 19 1 22 -4 22 -39z m-260 -330 c90 -45
106 -50 168 -50 74 0 92 -10 92 -50 0 -41 -18 -50 -95 -50 -64 0 -78 -4 -170
-50 -55 -28 -105 -48 -112 -46 -8 3 -13 22 -13 46 0 40 1 42 55 66 30 14 55
29 55 34 0 5 -25 20 -55 34 -53 24 -55 26 -55 64 0 39 6 52 22 52 5 0 53 -22
108 -50z m258 -291 c3 -31 -2 -40 -27 -59 -25 -17 -31 -28 -31 -60 0 -36 5
-44 45 -78 16 -13 21 -77 7 -86 -7 -4 -172 50 -349 114 -28 10 -33 17 -33 45
0 19 6 37 13 42 13 8 76 32 182 68 39 13 86 30 105 39 19 9 46 15 60 13 21 -2
25 -8 28 -38z"/>
<path d="M657 2268 c-22 -12 -22 -54 -1 -66 37 -21 73 12 54 48 -12 23 -32 30
-53 18z"/>
<path d="M655 1924 c-30 -31 0 -86 39 -71 22 9 22 73 0 81 -21 8 -20 8 -39
-10z"/>
<path d="M755 1560 c-4 -7 -3 -16 3 -22 14 -14 45 -2 40 15 -6 16 -34 21 -43
7z"/>
<path d="M745 939 c-9 -13 13 -30 35 -26 8 1 15 9 15 17 0 18 -40 26 -50 9z"/>
<path d="M657 2580 c-16 -27 -17 -31 -3 -36 28 -11 48 4 44 33 -4 37 -20 38
-41 3z"/>
</g>
</svg>
